<svg height="512pt" viewBox="0 0 512 512.00063" width="512pt" xmlns="http://www.w3.org/2000/svg"><path d="m508.667969 54.140625-50.808594-50.808594c-4.4375-4.441406-11.632813-4.445312-16.074219 0l-18.898437 18.898438c-2.886719-.070313-5.453125 1.035156-7.34375 2.925781l-81.785157 81.785156c-2.929687 2.929688-2.929687 7.679688 0 10.605469 2.929688 2.929687 7.675782 2.929687 10.605469 0l78.269531-78.265625 50.085938 50.085938c-432.179688 432.179687-44.179688 44.179687-241.710938 241.714843l-50.089843-50.089843 138.699219-138.695313c2.929687-2.929687 2.929687-7.679687 0-10.605469-2.929688-2.929687-7.679688-2.929687-10.609376 0l-53.011718 53.011719-159.550782-159.550781c-2.015624-2.015625-4.6875-2.984375-7.335937-2.917969l-18.902344-18.902344c-4.441406-4.441406-11.632812-4.445312-16.074219 0l-18.527343 18.527344c-2.925781 2.925781-2.925781 7.675781 0 10.605469 2.929687 2.925781 7.679687 2.929687 10.609375 0l15.953125-15.957032 14.375 14.375-45.667969 45.667969-14.375-14.375 4.964844-4.964843c2.929687-2.925782 2.929687-7.675782 0-10.605469-2.929688-2.929688-7.679688-2.929688-10.605469 0l-7.535156 7.535156c-4.429688 4.429687-4.429688 11.640625 0 16.070313l18.90625 18.90625c-.066407 2.648437.902343 5.320312 2.917969 7.339843l159.546874 159.546875-181.722656 181.722656c-3.960937 3.960938-3.960937 10.410157 0 14.375l56.925782 56.925782c3.964843 3.964844 10.414062 3.964844 14.375 0 7.875-7.875 169.515624-169.515625 181.726562-181.722656 97.042969 97.042968 85.839844 85.839843 98.734375 98.734374 1.464844 1.464844 3.382813 2.195313 5.304687 2.195313 6.621094 0 10.039063-8.066406 5.300782-12.800781l-38.914063-38.917969 50.082031-50.082031 118.484376 118.480468-50.085938 50.085938-54.816406-54.816406c-2.929688-2.929688-7.675782-2.929688-10.605469 0-2.929687 2.925781-2.929687 7.675781 0 10.605468l58.238281 58.238282c3.960938 3.960937 10.40625 3.960937 14.367188 0l56.933594-56.929688c3.960937-3.960937 3.960937-10.40625 0-14.367187-.105469-.101563 1.933593 1.9375-181.726563-181.726563l159.546875-159.546875c1.898438-1.898437 3-4.472656 2.925781-7.34375l18.898438-18.902343c4.429687-4.429688 4.429687-11.640626 0-16.070313zm-288.269531 287.546875-24.222657 24.222656-50.085937-50.085937 24.222656-24.226563zm-181.125-252.320312 50.085937-50.085938 156.03125 156.027344-50.089844 50.085937zm27.8125 405.632812-50.085938-50.085938 118.480469-118.484374 50.089843 50.089843zm248.730468-129.089844-24.222656-24.222656 50.085938-50.085938 24.222656 24.222657zm15.253906-84.914062-50.082031 50.082031-14.382812-14.382813 50.082031-50.082031zm150.046876-204.445313-45.667969-45.667969 14.375-14.375 45.667969 45.667969zm0 0"/></svg>