<svg height="512pt" viewBox="0 0 512 512.00063" width="512pt" xmlns="http://www.w3.org/2000/svg"><path d="m481.542969 87.582031-57.125-57.125c-.988281-.984375-2.585938-.984375-3.570313 0l-412.574218 412.574219c-1.039063 1.039062-1.039063 2.726562 0 3.765625l56.929687 56.925781c1.039063 1.042969 2.726563 1.042969 3.765625 0l412.570312-412.570312c.988282-.984375.988282-2.585938.003907-3.570313zm0 0" fill="#cfd8dc"/><path d="m481.542969 87.582031-57.125-57.125c-.988281-.984375-2.585938-.984375-3.570313 0l-18.214844 18.214844 10.140626 10.144531c16.875 16.871094 16.875 44.230469 0 61.105469l-365.6875 365.6875 18.117187 18.117187c1.039063 1.039063 2.726563 1.039063 3.765625 0l412.574219-412.574218c.984375-.984375.984375-2.585938 0-3.570313zm0 0" fill="#90a4ae"/><path d="m30.449219 91.152344c-.984375-.984375-.984375-2.585938 0-3.570313l57.125-57.125c.984375-.984375 2.582031-.984375 3.570312 0l164.851563 164.851563-60.695313 60.695312zm473.265625 351.878906-187.023438-187.027344-60.695312 60.695313 187.027344 187.023437c1.039062 1.042969 2.726562 1.042969 3.765624 0l56.925782-56.925781c1.042968-1.039063 1.042968-2.726563 0-3.765625zm0 0" fill="#cfd8dc"/><path d="m69.359375 48.671875 18.214844-18.214844c.984375-.984375 2.582031-.984375 3.570312 0l164.851563 164.851563-20 20zm434.355469 394.359375-187.023438-187.027344-20 20 144.476563 144.476563c13.492187 13.496093 13.492187 35.371093 0 48.863281l-16.261719 16.261719 18.117188 18.117187c1.039062 1.042969 2.726562 1.042969 3.765624 0l56.925782-56.925781c1.042968-1.039063 1.042968-2.726563 0-3.765625zm0 0" fill="#90a4ae"/><path d="m481.117188 87.15625 22.246093-22.246094c1.511719-1.507812 1.511719-3.957031 0-5.464844l-50.808593-50.8125c-1.507813-1.507812-3.957032-1.507812-5.464844 0l-22.246094 22.25zm0 0" fill="#ff7043"/><path d="m8.273438 446.796875 56.929687 56.925781c1.039063 1.042969 2.726563 1.042969 3.765625 0l162.039062-162.035156-60.695312-60.695312-162.039062 162.039062c-1.039063 1.039062-1.039063 2.726562 0 3.765625zm0 0" fill="#ffa726"/><path d="m176.175781 356.519531-129.089843 129.089844 18.117187 18.117187c1.039063 1.039063 2.546875 1.21875 3.367187.398438l127.605469-127.605469zm0 0" fill="#f57c00"/><path d="m170.3125 280.988281 60.695312 60.695313-34.832031 34.828125-60.691406-60.691407zm0 0" fill="#78909c"/><path d="m176.171875 356.515625 34.832031-34.828125 20 20-34.832031 34.828125zm0 0" fill="#455a64"/><path d="m30.875 87.15625-22.25-22.246094c-1.507812-1.507812-1.507812-3.957031 0-5.464844l50.8125-50.8125c1.507812-1.507812 3.953125-1.507812 5.464844 0l22.246094 22.25zm0 0" fill="#ff7043"/><path d="m503.714844 446.796875-56.925782 56.925781c-1.039062 1.042969-2.726562 1.042969-3.765624 0l-162.039063-162.035156 60.695313-60.695312 162.035156 162.039062c1.042968 1.039062 1.042968 2.726562 0 3.765625zm0 0" fill="#ffa726"/><path d="m503.714844 443.03125-162.035156-162.039062-20 20 118.605468 118.609374c13.980469 13.976563 13.980469 36.644532 0 50.625l-15.378906 15.382813 18.117188 18.117187c1.039062 1.039063 2.726562 1.039063 3.765624 0l56.925782-56.929687c1.042968-1.039063 1.042968-2.726563 0-3.765625zm0 0" fill="#f57c00"/><path d="m376.515625 315.824219-60.695313 60.691406-34.828124-34.828125 60.691406-60.695312zm0 0" fill="#78909c"/><path d="m341.679688 280.992188-20 20 34.828124 34.832031 20-20zm0 0" fill="#455a64"/><path d="m508.667969 54.140625-50.808594-50.808594c-4.4375-4.441406-11.632813-4.445312-16.074219 0l-18.898437 18.898438c-2.886719-.070313-5.453125 1.035156-7.34375 2.925781l-81.785157 81.785156c-2.929687 2.929688-2.929687 7.679688 0 10.605469 2.929688 2.929687 7.675782 2.929687 10.605469 0l78.269531-78.265625 50.085938 50.085938c-432.179688 432.179687-44.179688 44.179687-241.710938 241.714843l-50.089843-50.089843 138.699219-138.695313c2.929687-2.929687 2.929687-7.679687 0-10.605469-2.929688-2.929687-7.679688-2.929687-10.609376 0l-53.011718 53.011719-159.550782-159.550781c-2.015624-2.015625-4.6875-2.984375-7.335937-2.917969l-18.902344-18.902344c-4.441406-4.441406-11.632812-4.445312-16.074219 0l-18.527343 18.527344c-2.925781 2.925781-2.925781 7.675781 0 10.605469 2.929687 2.925781 7.679687 2.929687 10.609375 0l15.953125-15.957032 14.375 14.375-45.667969 45.667969-14.375-14.375 4.964844-4.964843c2.929687-2.925782 2.929687-7.675782 0-10.605469-2.929688-2.929688-7.679688-2.929688-10.605469 0l-7.535156 7.535156c-4.429688 4.429687-4.429688 11.640625 0 16.070313l18.90625 18.90625c-.066407 2.648437.902343 5.320312 2.917969 7.339843l159.546874 159.546875-181.722656 181.722656c-3.960937 3.960938-3.960937 10.410157 0 14.375l56.925782 56.925782c3.964843 3.964844 10.414062 3.964844 14.375 0 7.875-7.875 169.515624-169.515625 181.726562-181.722656 97.042969 97.042968 85.839844 85.839843 98.734375 98.734374 1.464844 1.464844 3.382813 2.195313 5.304687 2.195313 6.621094 0 10.039063-8.066406 5.300782-12.800781l-38.914063-38.917969 50.082031-50.082031 118.484376 118.480468-50.085938 50.085938-54.816406-54.816406c-2.929688-2.929688-7.675782-2.929688-10.605469 0-2.929687 2.925781-2.929687 7.675781 0 10.605468l58.238281 58.238282c3.960938 3.960937 10.40625 3.960937 14.367188 0l56.933594-56.929688c3.960937-3.960937 3.960937-10.40625 0-14.367187-.105469-.101563 1.933593 1.9375-181.726563-181.726563l159.546875-159.546875c1.898438-1.898437 3-4.472656 2.925781-7.34375l18.898438-18.902343c4.429687-4.429688 4.429687-11.640626 0-16.070313zm-288.269531 287.546875-24.222657 24.222656-50.085937-50.085937 24.222656-24.226563zm-181.125-252.320312 50.085937-50.085938 156.03125 156.027344-50.089844 50.085937zm27.8125 405.632812-50.085938-50.085938 118.480469-118.484374 50.089843 50.089843zm248.730468-129.089844-24.222656-24.222656 50.085938-50.085938 24.222656 24.222657zm15.253906-84.914062-50.082031 50.082031-14.382812-14.382813 50.082031-50.082031zm150.046876-204.445313-45.667969-45.667969 14.375-14.375 45.667969 45.667969zm0 0"/></svg>